<svg width="367" height="300" viewBox="0 0 367 300" fill="none" xmlns="http://www.w3.org/2000/svg">
<path d="M38.4197 251.251C39.2626 247.988 37.1218 244.703 34.6901 242.337C32.2584 239.97 29.4239 237.857 28.1782 234.714C26.1567 229.637 28.8719 223.066 25.4257 218.833C23.3968 216.339 19.7567 215.503 17.9665 212.86C17.0192 211.464 16.7133 209.747 16.3404 208.104C14.4357 199.666 10.2979 191.896 4.36086 185.609C3.96469 193.118 5.59293 200.597 9.07509 207.261C10.47 209.918 12.1856 212.487 12.6481 215.473C13.394 220.296 10.7087 225.269 11.9021 230.002C13.2523 235.423 19.3614 239.051 19.6224 244.629C19.8686 249.347 15.7586 253.484 16.0644 258.195C16.3145 260.198 17.0326 262.114 18.1604 263.787C21.8155 269.879 27.1488 274.053 35.2421 273.919L45.1777 274.262L38.4197 251.251Z" fill="url(#paint0_linear_14_219)"/>
<g opacity="0.3">
<path d="M38.4197 251.251C39.2626 247.988 37.1218 244.703 34.6901 242.337C32.2584 239.97 29.4239 237.857 28.1782 234.714C26.1567 229.637 28.8719 223.066 25.4257 218.833C23.3968 216.339 19.7567 215.503 17.9665 212.86C17.0192 211.464 16.7133 209.747 16.3404 208.104C14.4357 199.666 10.2979 191.896 4.36086 185.609C3.96469 193.118 5.59293 200.597 9.07509 207.261C10.47 209.918 12.1856 212.487 12.6481 215.473C13.394 220.296 10.7087 225.269 11.9021 230.002C13.2523 235.423 19.3614 239.051 19.6224 244.629C19.8686 249.347 15.7586 253.484 16.0644 258.195C16.3145 260.198 17.0326 262.114 18.1604 263.787C21.8155 269.879 27.1488 274.053 35.2421 273.919L45.1777 274.262L38.4197 251.251Z" fill="url(#paint1_linear_14_219)"/>
</g>
<path d="M48.9596 274.262C55.4492 270.402 57.314 258.979 54.6063 251.923C51.8986 244.868 47.147 238.424 46.4011 230.906C45.8342 225.127 47.7289 219.192 46.4011 213.54C44.596 205.902 37.1591 200.011 37.2486 192.172C37.2934 187.774 39.7922 183.638 39.5983 179.24C39.3521 173.857 35.2197 169.579 32.6612 164.83C28.7377 157.566 28.484 148.972 27.1414 140.827C25.7987 132.681 22.6658 123.953 15.4901 119.921C14.4234 126.835 12.6033 131.576 13.1777 140.946C13.3791 144.313 17.2877 150.749 17.8173 158.118C18.1381 162.531 18.3544 166.943 18.6229 171.356C18.884 175.649 19.16 180.017 20.7041 184.048C21.8826 187.132 23.7698 189.924 24.65 193.105C26.291 199.078 24.1279 205.558 25.4556 211.613C26.5819 216.743 30.1325 221.163 30.8561 226.367C31.878 233.676 27.1265 241.299 29.5656 248.242C30.7666 251.707 33.616 254.484 34.4216 258.053C35.0482 260.83 34.3619 263.765 34.9288 266.55C35.8463 271.029 44.3946 274.523 48.9596 274.24" fill="url(#paint2_linear_14_219)"/>
<path d="M17.2728 126.813C17.2612 126.945 17.2612 127.077 17.2728 127.209C17.2728 127.5 17.3624 127.873 17.422 128.344C17.5712 129.344 17.7353 130.808 18.071 132.704C18.4066 134.601 19.4211 136.758 20.2043 139.349C20.9875 141.94 21.8528 144.911 22.5838 148.241C23.3148 151.571 23.9414 155.267 24.5904 159.231C25.2393 163.196 25.9554 167.526 27.9172 171.663C28.8272 173.738 29.8491 175.814 30.6174 178.031C31.3663 180.304 31.8249 182.662 31.9824 185.049C32.3469 190.122 32.9844 195.172 33.892 200.176C35.8762 210.427 37.7708 220.185 39.4939 229.077C41.217 237.97 42.9475 245.899 44.32 252.611C45.6925 259.323 46.8412 264.684 47.6319 268.469C48.0272 270.306 48.3405 271.747 48.5643 272.777C48.6687 273.24 48.7582 273.606 48.8254 273.889C48.8469 274.017 48.8819 274.142 48.9298 274.263C48.9347 274.132 48.9196 274.001 48.8851 273.875C48.8328 273.591 48.7732 273.218 48.6911 272.747C48.4972 271.717 48.2212 270.268 47.8781 268.417C47.1321 264.624 46.0729 259.204 44.7676 252.521C43.4622 245.839 41.8361 237.82 40.0682 228.958L34.5186 200.071C33.624 195.084 32.9966 190.052 32.6389 184.997C32.4703 182.56 31.9941 180.154 31.2216 177.837C30.4309 175.597 29.4016 173.492 28.4841 171.431C26.5298 167.362 25.8435 163.106 25.1423 159.149C24.4412 155.192 23.8221 151.489 23.0538 148.152C22.2855 144.814 21.4351 141.828 20.5698 139.244C19.7046 136.661 18.7349 134.518 18.3321 132.659C17.9293 130.8 17.7502 129.314 17.5861 128.329C17.4966 127.866 17.4295 127.493 17.3773 127.202C17.3601 127.068 17.325 126.937 17.2728 126.813Z" fill="#4A4E57"/>
<path d="M330.454 232.232C331.462 232.713 332.363 233.393 333.102 234.231C333.842 235.068 334.405 236.047 334.758 237.108C335.448 239.238 335.644 241.498 335.332 243.715C334.847 248.008 332.408 252.331 329.79 255.758C326.18 252.607 325.314 247.112 325.105 244.297C324.718 239.818 326.709 231.568 330.454 232.232Z" fill="url(#paint3_linear_14_219)"/>
<path d="M333.975 262.843C333.734 261.62 333.819 260.356 334.221 259.176C334.623 257.997 335.328 256.944 336.265 256.123C337.22 255.319 338.325 254.713 339.515 254.34C340.706 253.967 341.959 253.835 343.202 253.951C343.778 253.944 344.348 254.063 344.874 254.299C345.399 254.535 345.867 254.882 346.245 255.317C346.528 255.778 346.682 256.307 346.691 256.848C346.701 257.389 346.565 257.923 346.298 258.393C345.75 259.328 344.965 260.101 344.022 260.633C340.897 262.597 337.511 263.926 333.975 262.873" fill="url(#paint4_linear_14_219)"/>
<path d="M329.35 275.969C329.367 275.672 329.41 275.377 329.477 275.088C329.589 274.468 329.738 273.669 329.917 272.706C330.316 270.049 331.145 267.474 332.371 265.083C333.64 262.698 335.523 260.695 337.824 259.282C338.526 258.862 339.278 258.531 340.062 258.296C340.272 258.229 340.486 258.175 340.703 258.132C340.852 258.132 340.934 258.087 340.934 258.132C339.149 258.709 337.498 259.637 336.076 260.861C334.654 262.085 333.491 263.582 332.655 265.262C331.454 267.613 330.609 270.129 330.148 272.728C329.924 273.729 329.745 274.535 329.611 275.088C329.555 275.39 329.468 275.685 329.35 275.969Z" fill="#4A4E57"/>
<path d="M329.485 238.645C329.509 238.774 329.524 238.903 329.53 239.034C329.53 239.317 329.568 239.683 329.598 240.139C329.65 241.094 329.702 242.483 329.762 244.208C329.867 247.642 329.957 252.42 329.935 257.647C329.912 262.873 329.785 267.644 329.642 271.086C329.575 272.803 329.5 274.192 329.44 275.155C329.44 275.603 329.388 275.969 329.365 276.26C329.364 276.388 329.349 276.516 329.32 276.641C329.309 276.512 329.309 276.382 329.32 276.252C329.32 275.969 329.32 275.603 329.32 275.148C329.32 274.147 329.38 272.766 329.418 271.078C329.508 267.644 329.598 262.866 329.62 257.639C329.642 252.413 329.62 247.65 329.538 244.2C329.538 242.513 329.493 241.132 329.47 240.131V239.026C329.464 238.899 329.469 238.772 329.485 238.645Z" fill="#4A4E57"/>
<path d="M327.731 265.427C327.296 262.828 326.249 260.371 324.675 258.258C323.101 256.146 321.047 254.439 318.683 253.28C317.482 252.698 315.901 252.324 314.916 253.22C313.932 254.116 314.17 255.736 314.625 256.953C315.687 259.541 317.491 261.757 319.808 263.322C322.126 264.887 324.854 265.731 327.649 265.748" fill="url(#paint5_linear_14_219)"/>
<path d="M319.265 257.349C319.524 257.432 319.774 257.542 320.011 257.677C320.308 257.815 320.597 257.969 320.876 258.14C321.256 258.353 321.624 258.584 321.98 258.834C322.417 259.128 322.837 259.445 323.241 259.783C323.709 260.165 324.157 260.571 324.583 261C325.551 261.993 326.405 263.093 327.127 264.277C327.83 265.476 328.393 266.751 328.805 268.078C328.979 268.657 329.121 269.245 329.23 269.84C329.33 270.358 329.402 270.881 329.447 271.407C329.491 271.839 329.511 272.273 329.506 272.707C329.527 273.032 329.527 273.359 329.506 273.685C329.504 273.966 329.474 274.246 329.417 274.521C329.342 274.521 329.469 273.326 329.26 271.43C329.203 270.913 329.118 270.4 329.007 269.892C328.891 269.309 328.741 268.733 328.559 268.167C328.142 266.865 327.582 265.613 326.888 264.434C326.18 263.267 325.347 262.181 324.404 261.194C323.99 260.766 323.554 260.36 323.099 259.977C322.712 259.631 322.306 259.307 321.883 259.006C320.324 257.901 319.265 257.408 319.265 257.349Z" fill="#4A4E57"/>
<g style="mix-blend-mode:multiply" opacity="0.49">
<path d="M183.5 300C284.844 300 367 288.665 367 274.684C367 260.702 284.844 249.367 183.5 249.367C82.1557 249.367 0 260.702 0 274.684C0 288.665 82.1557 300 183.5 300Z" fill="#9FA8DA"/>
</g>
<path d="M346.075 46.732C343.638 38.6314 339.354 31.1943 333.223 24.3955C327.078 17.5967 318.698 11.9829 308.082 7.54353C297.466 3.10419 283.977 0.884521 267.617 0.884521C254.565 0.884521 241.265 2.64524 227.714 6.16667C214.151 9.70062 202.385 14.7262 192.408 21.2579L205.397 56.927L198.435 62.568L208.532 65.5366C218.497 60.3191 227.578 56.5306 235.771 54.1712C243.951 51.8243 252.644 50.6498 261.861 50.6498C271.077 50.6498 278.035 52.8694 282.768 57.3088C287.5 61.7606 289.861 67.1054 289.861 73.3826C289.861 80.9595 287.425 87.6832 282.58 93.5641C277.71 99.445 272.339 105.388 266.456 111.397C262.372 115.569 258.401 119.879 254.565 124.318C250.732 128.77 247.334 133.529 244.399 138.631C241.452 143.722 239.091 149.206 237.306 155.087C235.508 160.968 234.622 167.562 234.622 174.872C234.622 177.231 234.672 180.037 234.81 183.304C234.832 183.907 234.864 184.493 234.899 185.073H225.355L235.771 192.118H286.416C286.153 190.549 286.028 188.724 286.028 186.634V181.927C286.028 177.488 286.927 173.113 288.712 168.801C290.497 164.489 292.746 160.382 295.432 156.453C298.116 152.538 301.116 148.812 304.448 145.292C307.771 141.758 310.968 138.429 314.04 135.291C318.124 131.119 322.346 126.682 326.692 121.973C331.039 117.267 334.885 112.317 338.207 107.087C341.53 101.857 344.277 96.1801 346.45 90.0322C348.623 83.8968 349.722 77.1732 349.722 69.8508C349.722 62.5283 348.498 54.8367 346.075 46.7361V46.732Z" fill="#5C6BC0"/>
<path d="M251.138 48.161C242.03 48.161 233.439 49.2959 225.355 51.5677C217.258 53.852 208.286 57.5174 198.435 62.568L182.5 19.7163C192.361 13.3952 203.989 8.53029 217.394 5.11108C230.786 1.70439 243.93 0 256.828 0C272.996 0 286.328 2.14874 296.819 6.44414C307.31 10.7395 315.592 16.1719 321.666 22.7516C327.727 29.3314 331.958 36.5286 334.365 44.3684C336.76 52.2081 337.969 59.6641 337.969 66.7382C337.969 73.8124 336.883 80.3316 334.737 86.2688C332.588 92.2185 329.873 97.7135 326.59 102.774C323.307 107.836 319.505 112.625 315.21 117.181C310.916 121.738 306.743 126.033 302.707 130.07C299.67 133.107 296.51 136.328 293.227 139.75C289.932 143.156 286.97 146.761 284.315 150.552C281.662 154.355 279.439 158.329 277.674 162.501C275.91 166.673 275.021 170.908 275.021 175.204V179.76C275.021 181.786 275.144 183.55 275.403 185.069H225.353C224.834 182.539 224.527 179.699 224.402 176.539C224.266 173.378 224.216 170.662 224.216 168.378C224.216 161.304 225.092 154.922 226.869 149.229C228.634 143.538 230.968 138.229 233.879 133.303C236.78 128.365 240.136 123.761 243.926 119.451C247.716 115.156 251.641 110.981 255.677 106.945C261.489 101.131 266.797 95.377 271.611 89.6859C276.4 83.9949 278.807 77.4882 278.807 70.1553C278.807 64.0805 276.475 58.9089 271.797 54.601C267.119 50.3056 260.232 48.1568 251.136 48.1568L251.138 48.161Z" fill="#9FA8DA"/>
<path d="M289.88 241.287C289.88 250.42 286.924 257.467 281.012 262.438C275.101 267.42 268.418 269.901 260.958 269.901C253.497 269.901 246.806 267.42 240.895 262.438C234.993 257.467 232.038 250.42 232.038 241.287C232.038 232.154 234.993 225.117 240.895 220.135C249.995 212.454 263.458 210.743 274.112 216.134C283.567 220.918 289.88 230.633 289.88 241.287Z" fill="#5C6BC0"/>
<path d="M279.973 241.287C279.973 250.42 277.017 257.467 271.105 262.438C265.194 267.42 258.511 269.901 251.051 269.901C243.59 269.901 236.899 267.42 230.988 262.438C225.086 257.467 222.131 250.42 222.131 241.287C222.131 232.154 225.086 225.117 230.988 220.135C236.899 215.164 243.582 212.673 251.051 212.673C258.519 212.673 265.192 215.164 271.105 220.135C277.015 225.117 279.973 232.164 279.973 241.287Z" fill="#9FA8DA"/>
<path d="M121.679 86.6102C122.323 83.1766 120.062 79.8711 116.629 79.2273C113.196 78.5834 109.891 80.845 109.248 84.2787C108.604 87.7123 110.865 91.0178 114.298 91.6616C117.731 92.3054 121.036 90.0438 121.679 86.6102Z" fill="url(#paint6_linear_14_219)"/>
<path d="M124.692 98.469C125.054 96.5374 123.771 94.6762 121.827 94.3119C119.883 93.9476 118.013 95.2182 117.652 97.1497C117.29 99.0813 118.573 100.942 120.517 101.307C122.461 101.671 124.331 100.401 124.692 98.469Z" fill="url(#paint7_linear_14_219)"/>
<path d="M117.477 71.1905C127.203 61.4669 127.203 45.7019 117.477 35.9783C107.75 26.2547 91.9805 26.2547 82.254 35.9783C72.5275 45.7019 72.5275 61.4669 82.254 71.1905C91.9805 80.9141 107.75 80.9141 117.477 71.1905Z" fill="url(#paint8_linear_14_219)"/>
<path d="M90.2946 56.7223C92.0269 56.7223 93.4313 55.3176 93.4313 53.5849C93.4313 51.8522 92.0269 50.4476 90.2946 50.4476C88.5623 50.4476 87.158 51.8522 87.158 53.5849C87.158 55.3176 88.5623 56.7223 90.2946 56.7223Z" fill="white"/>
<path d="M99.8544 56.7223C101.587 56.7223 102.991 55.3176 102.991 53.5849C102.991 51.8522 101.587 50.4476 99.8544 50.4476C98.1221 50.4476 96.7178 51.8522 96.7178 53.5849C96.7178 55.3176 98.1221 56.7223 99.8544 56.7223Z" fill="white"/>
<path d="M109.417 56.7223C111.149 56.7223 112.554 55.3176 112.554 53.5849C112.554 51.8522 111.149 50.4476 109.417 50.4476C107.685 50.4476 106.28 51.8522 106.28 53.5849C106.28 55.3176 107.685 56.7223 109.417 56.7223Z" fill="white"/>
<path d="M82.0165 257.433L84.343 266.405C84.95 268.744 87.2112 270.326 89.7142 270.155C97.3418 269.637 113.192 267.767 122.29 261.059L119.705 248.13C107.197 247.424 95.5014 248.121 85.3708 251.529C82.8339 252.383 81.3683 254.925 82.0189 257.431L82.0165 257.433Z" fill="#102048"/>
<path d="M149.739 253.493C146.752 252.538 143.891 250.648 143.891 250.648L133.632 253.868L135.983 265.031L146.641 267.196C149.889 261.255 150.077 256.379 149.739 253.493Z" fill="#F9B384"/>
<path d="M112.483 244.671L112.029 243.887C123.003 237.509 151.11 222.185 175.059 217.664L175.228 218.556C151.419 223.051 123.419 238.317 112.486 244.671H112.483Z" fill="#E49B31"/>
<path fill-rule="evenodd" clip-rule="evenodd" d="M140.898 258.049C139.511 260.614 137.855 262.925 135.983 265.031C36.3743 254.758 51.7649 197.637 111.187 208.939L161.204 207.088L162.93 209.686C208.049 204.382 211.813 244.481 140.898 258.049Z" fill="#4A4E57"/>
<path d="M143.647 251.031C140.82 249.231 137.874 247.33 134.757 245.315C119.102 235.206 101.361 223.747 86.2874 217.214L86.6477 216.382C101.789 222.944 119.564 234.425 135.248 244.553C138.365 246.565 141.308 248.466 144.133 250.266L143.647 251.031Z" fill="#102048"/>
<path d="M179.374 250.169C171.76 245.465 157.001 253.595 153.296 254.006C152.215 254.127 150.967 253.89 149.739 253.495C150.077 256.381 149.889 261.258 146.641 267.199L148.452 267.566C148.452 267.566 160.967 272.155 174.244 269.485C186.498 267.02 185.359 253.87 179.374 250.172V250.169Z" fill="#102048"/>
<path d="M100.674 135.292C100.674 135.292 115.639 122.563 115.086 120.144C114.689 118.415 110.45 120.95 110.45 120.95C110.45 120.95 116.394 113.894 116.092 113.038C115.552 111.506 111.439 114.361 111.439 114.361C111.439 114.361 114.217 110.36 112.89 109.707C111.562 109.054 108.665 111.521 108.665 111.521C108.665 111.521 110.358 109.3 109.562 108.717C108.766 108.134 105.337 110.532 105.337 110.532C105.337 110.532 106.568 107.73 103.954 108.792C101.339 109.854 83.0032 126.685 83.0032 126.685L100.674 135.292Z" fill="#F9B384"/>
<path d="M106.798 120.193C106.725 120.193 106.653 120.166 106.595 120.113C104.026 117.767 102.892 117.196 100.06 116.322C99.9005 116.274 99.8111 116.105 99.8594 115.945C99.9078 115.785 100.077 115.696 100.237 115.744C103.173 116.647 104.346 117.237 107.003 119.665C107.127 119.779 107.136 119.97 107.023 120.094C106.962 120.159 106.882 120.193 106.8 120.193H106.798Z" fill="#E28B6D"/>
<path d="M102.29 127.099C102.276 127.099 102.261 127.099 102.249 127.096C102.084 127.072 101.968 126.92 101.993 126.755C102.288 124.651 102.95 123.335 104.017 122.735C104.931 122.222 106.118 122.273 107.55 122.892C107.702 122.958 107.775 123.137 107.707 123.289C107.642 123.441 107.463 123.514 107.311 123.446C106.063 122.907 105.054 122.844 104.314 123.262C103.434 123.758 102.854 124.96 102.592 126.84C102.571 126.99 102.442 127.101 102.292 127.101L102.29 127.099Z" fill="#E28B6D"/>
<path d="M101.584 114.373C101.504 114.373 101.424 114.341 101.364 114.278C101.25 114.157 101.255 113.966 101.376 113.85L105.132 110.311C105.252 110.195 105.443 110.203 105.56 110.323C105.673 110.444 105.668 110.636 105.547 110.752L101.792 114.291C101.734 114.346 101.659 114.373 101.584 114.373Z" fill="#E28B6D"/>
<path d="M105.059 115.582C104.984 115.582 104.909 115.553 104.849 115.498C104.728 115.381 104.725 115.19 104.839 115.069L108.447 111.31C108.563 111.189 108.754 111.185 108.875 111.301C108.996 111.417 108.999 111.608 108.885 111.729L105.277 115.488C105.216 115.551 105.139 115.58 105.059 115.58V115.582Z" fill="#E28B6D"/>
<path d="M108.612 117.699C108.537 117.699 108.464 117.672 108.406 117.617C108.285 117.503 108.278 117.312 108.392 117.188L111.221 114.153C111.335 114.032 111.526 114.024 111.649 114.138C111.77 114.252 111.777 114.443 111.664 114.566L108.834 117.602C108.774 117.665 108.694 117.699 108.612 117.699Z" fill="#E28B6D"/>
<path fill-rule="evenodd" clip-rule="evenodd" d="M85.4336 154.467L102.885 133.226L86.5654 123.335C79.7577 128.069 66.5944 138.792 55.4384 150.935C52.9764 153.615 51.0514 156.745 50.084 160.192C49.257 163.134 49.107 166.039 49.5713 168.884C50.783 176.3 56.6137 182.021 64.3985 182.933C69.0027 183.472 82.5988 182.684 97.3519 180.14L102.49 222.543L157.206 220.426C157.463 219.23 157.717 218.051 157.968 216.887C172.659 212.502 198.786 201.544 189.25 180.816C175.937 151.876 133.707 148.264 133.707 148.264L133.707 148.265C133.707 148.265 133.707 148.265 133.707 148.264L121.809 148.874C120.999 149.609 120.041 150.489 118.979 151.471C111.09 150.632 94.5438 151.113 85.4336 154.467Z" fill="url(#paint9_linear_14_219)"/>
<path d="M137.572 137.174L137.564 137.948L137.441 149.977L137.427 151.281C137.405 153.32 136.568 155.168 135.219 156.511C133.876 157.843 132.029 158.68 129.983 158.695C125.859 158.717 122.486 155.405 122.447 151.274L122.302 136.407L137.572 137.174Z" fill="#F9B384"/>
<path d="M137.564 137.948L137.441 149.977C130.757 147.256 128.005 140.018 128.005 140.018L137.562 137.948H137.564Z" fill="#102048"/>
<path d="M140.208 116.956C142.602 119.832 149.598 136.124 142.508 141.683C134.529 147.938 122.387 137.657 122.387 137.657L120.757 118.681L131.296 115.902L140.208 116.956Z" fill="#F9B384"/>
<path d="M115.388 115.911C115.388 115.911 92.0092 128.107 111.071 163.262C113.518 167.778 118.943 169.747 123.581 167.546C128.558 165.183 130.442 159.101 127.738 154.3C124.621 148.76 121.61 141.624 122.897 136.317L115.388 115.914V115.911Z" fill="#4A4E57"/>
<path d="M122.066 126.155C124.536 123.685 124.536 119.68 122.066 117.21C119.597 114.74 115.592 114.74 113.123 117.21C110.653 119.68 110.653 123.685 113.123 126.155C115.592 128.626 119.597 128.626 122.066 126.155Z" fill="#FBC343"/>
<path d="M125.376 129.283C124.691 125.338 124.275 122.631 128.263 120.597C128.263 120.597 142.317 123.154 144.999 117.849C147.681 112.547 143.593 104.177 135.035 109.99C113.124 105.708 110.186 126.218 116.829 133.054L123.385 132.048C124.706 131.845 125.603 130.597 125.376 129.281V129.283Z" fill="#4A4E57"/>
<path d="M136.257 130.229C136.772 130.229 137.191 129.811 137.191 129.295C137.191 128.78 136.772 128.361 136.257 128.361C135.741 128.361 135.323 128.78 135.323 129.295C135.323 129.811 135.741 130.229 136.257 130.229Z" fill="#102048"/>
<path d="M142.581 127.113C143.097 127.113 143.515 126.695 143.515 126.18C143.515 125.664 143.097 125.246 142.581 125.246C142.065 125.246 141.647 125.664 141.647 126.18C141.647 126.695 142.065 127.113 142.581 127.113Z" fill="#102048"/>
<path d="M141.932 132.171C141.867 132.171 141.801 132.147 141.751 132.099C141.644 131.997 141.639 131.83 141.741 131.724C142.116 131.33 142.527 130.776 142.353 130.372C142.174 129.953 141.417 129.774 141.069 129.774C140.324 129.774 139.966 128.449 139.901 128.183C139.867 128.04 139.954 127.897 140.096 127.863C140.239 127.827 140.382 127.916 140.416 128.059C140.551 128.62 140.861 129.247 141.069 129.247C141.427 129.247 142.517 129.416 142.839 130.166C143.069 130.701 142.829 131.349 142.123 132.092C142.072 132.147 142.002 132.174 141.932 132.174V132.171Z" fill="#102048"/>
<path d="M141.98 135.715C141.93 135.715 141.879 135.701 141.833 135.669C140.075 134.481 138.297 135.478 138.28 135.488C138.155 135.56 137.992 135.517 137.92 135.391C137.847 135.265 137.891 135.103 138.017 135.031C138.101 134.982 140.099 133.862 142.13 135.231C142.251 135.314 142.283 135.478 142.2 135.599C142.15 135.674 142.065 135.715 141.98 135.715Z" fill="#102048"/>
<path d="M135.847 125.246C136.379 126.247 135.453 126.448 134.367 127.024C133.282 127.6 132.171 127.812 131.918 127.333C131.664 126.857 132.338 126.003 133.424 125.425C134.51 124.847 135.436 124.469 135.847 125.243V125.246Z" fill="#102048"/>
<path d="M139.804 123.441C140.039 124.334 140.704 123.945 141.671 123.691C142.638 123.437 143.422 122.95 143.311 122.525C143.199 122.099 142.324 121.959 141.354 122.213C140.384 122.467 139.62 122.752 139.802 123.444L139.804 123.441Z" fill="#102048"/>
<path opacity="0.4" d="M133.817 135.664C134.936 134.632 135.006 132.889 133.974 131.771C132.943 130.652 131.2 130.582 130.082 131.614C128.964 132.646 128.894 134.389 129.925 135.507C130.957 136.625 132.699 136.696 133.817 135.664Z" fill="#EB5D60"/>
<path d="M124.837 136.265C126.096 134.633 125.614 132.15 123.761 130.72C121.907 129.289 119.384 129.452 118.125 131.084C116.865 132.715 117.347 135.198 119.201 136.629C121.054 138.06 123.578 137.897 124.837 136.265Z" fill="#F9B384"/>
<path d="M123.122 135.047C122.977 135.047 122.858 134.929 122.858 134.784C122.858 134.002 122.479 133.282 121.84 132.851C121.296 132.483 120.645 132.399 120.101 132.619C119.966 132.672 119.811 132.609 119.755 132.474C119.7 132.338 119.765 132.183 119.901 132.128C120.607 131.84 121.441 131.944 122.133 132.411C122.916 132.938 123.385 133.823 123.385 134.781C123.385 134.926 123.267 135.045 123.122 135.045V135.047Z" fill="#102048"/>
<path d="M85.2153 154.257L75.6683 164.581L76.1124 164.992L85.6593 154.667L85.2153 154.257Z" fill="#102048"/>
<path d="M152.457 198.644L152.28 198.066C159.228 195.947 165.973 193.414 172.085 185.77L172.556 186.147C166.336 193.927 159.499 196.498 152.457 198.646V198.644Z" fill="#102048"/>
<path d="M156.682 175.226H97.5716C95.4458 175.226 93.7215 177.091 93.7215 179.391V221.604C93.7215 223.905 95.4458 225.77 97.5716 225.77H156.682C158.808 225.77 160.532 223.905 160.532 221.604V179.391C160.532 177.091 158.808 175.226 156.682 175.226Z" fill="url(#paint10_linear_14_219)"/>
<path d="M130.249 197.828C130.474 197.828 130.655 198.024 130.655 198.269V202.724C130.655 202.966 130.474 203.165 130.249 203.165H124.007C123.782 203.165 123.601 202.969 123.601 202.724V198.269C123.601 198.027 123.782 197.828 124.007 197.828H130.249ZM130.249 196.619H124.007C123.117 196.619 122.391 197.359 122.391 198.269V202.724C122.391 203.634 123.117 204.374 124.007 204.374H130.249C131.139 204.374 131.864 203.634 131.864 202.724V198.269C131.864 197.359 131.139 196.619 130.249 196.619Z" fill="#1F3C88"/>
<defs>
<linearGradient id="paint0_linear_14_219" x1="24.3337" y1="446.273" x2="44.2011" y2="272.397" gradientUnits="userSpaceOnUse">
<stop stop-color="#9FA8DA"/>
<stop offset="1" stop-color="#5C6BC0"/>
</linearGradient>
<linearGradient id="paint1_linear_14_219" x1="24.3337" y1="446.273" x2="44.2011" y2="272.397" gradientUnits="userSpaceOnUse">
<stop stop-color="#9FA8DA"/>
<stop offset="1" stop-color="#5C6BC0"/>
</linearGradient>
<linearGradient id="paint2_linear_14_219" x1="71.6399" y1="202.865" x2="38.8796" y2="202.392" gradientUnits="userSpaceOnUse">
<stop stop-color="#5C6BC0"/>
<stop offset="1" stop-color="#9FA8DA"/>
</linearGradient>
<linearGradient id="paint3_linear_14_219" x1="330.163" y1="301.478" x2="335.664" y2="255.314" gradientUnits="userSpaceOnUse">
<stop stop-color="#9FA8DA"/>
<stop offset="1" stop-color="#5C6BC0"/>
</linearGradient>
<linearGradient id="paint4_linear_14_219" x1="340.139" y1="281.353" x2="340.847" y2="262.835" gradientUnits="userSpaceOnUse">
<stop stop-color="#9FA8DA"/>
<stop offset="1" stop-color="#5C6BC0"/>
</linearGradient>
<linearGradient id="paint5_linear_14_219" x1="320.847" y1="291.097" x2="322.167" y2="265.206" gradientUnits="userSpaceOnUse">
<stop stop-color="#9FA8DA"/>
<stop offset="1" stop-color="#5C6BC0"/>
</linearGradient>
<linearGradient id="paint6_linear_14_219" x1="117.958" y1="74.7083" x2="115.678" y2="84.1222" gradientUnits="userSpaceOnUse">
<stop stop-color="#5C6BC0"/>
<stop offset="1" stop-color="#9FA8DA"/>
</linearGradient>
<linearGradient id="paint7_linear_14_219" x1="122.576" y1="91.7701" x2="121.296" y2="97.0664" gradientUnits="userSpaceOnUse">
<stop stop-color="#5C6BC0"/>
<stop offset="1" stop-color="#9FA8DA"/>
</linearGradient>
<linearGradient id="paint8_linear_14_219" x1="131.842" y1="24.2515" x2="103.513" y2="49.7778" gradientUnits="userSpaceOnUse">
<stop stop-color="#5C6BC0"/>
<stop offset="1" stop-color="#9FA8DA"/>
</linearGradient>
<linearGradient id="paint9_linear_14_219" x1="118.891" y1="415.032" x2="126.137" y2="218.182" gradientUnits="userSpaceOnUse">
<stop stop-color="#9FA8DA"/>
<stop offset="1" stop-color="#5C6BC0"/>
</linearGradient>
<linearGradient id="paint10_linear_14_219" x1="185.281" y1="202.389" x2="134.302" y2="198.872" gradientUnits="userSpaceOnUse">
<stop stop-color="#5C6BC0"/>
<stop offset="1" stop-color="#9FA8DA"/>
</linearGradient>
</defs>
</svg>
